<?xml version="1.0" standalone="no"?><!DOCTYPE svg PUBLIC "-//W3C//DTD SVG 1.1//EN" "http://www.w3.org/Graphics/SVG/1.1/DTD/svg11.dtd"><svg t="1587648602598" class="icon" viewBox="0 0 1024 1024" version="1.1" xmlns="http://www.w3.org/2000/svg" p-id="18557" xmlns:xlink="http://www.w3.org/1999/xlink" width="32" height="32"><defs><style type="text/css"></style></defs><path d="M1008 992L32 992 32 16c0-8.784-7.2-16-16-16S0 7.216 0 16l0 992c0 8.816 7.2 16 16 16l992 0c8.8 0 16-7.184 16-16C1024 999.216 1016.8 992 1008 992z" fill="" p-id="18558"></path><path d="M134.672 938.032l64 0c17.664 0 32-14.336 32-32L230.672 200.688c0-17.68-14.336-32-32-32l-64 0c-17.664 0-32 14.32-32 32l0 705.344C102.672 923.68 116.992 938.032 134.672 938.032z" fill="" p-id="18559"></path><path d="M372.896 938.032l64 0c17.664 0 32-14.336 32-32L468.896 32c0-17.664-14.336-32-32-32l-64 0c-17.664 0-32 14.336-32 32l0 874.032C340.896 923.68 355.216 938.032 372.896 938.032z" fill="" p-id="18560"></path><path d="M611.104 938.032l64 0c17.664 0 32-14.336 32-32L707.104 536.688c0-17.68-14.336-32-32-32l-64 0c-17.664 0-32 14.32-32 32l0 369.344C579.104 923.68 593.44 938.032 611.104 938.032z" fill="" p-id="18561"></path><path d="M849.328 938.032l64 0c17.664 0 32-14.336 32-32L945.328 744.688c0-17.68-14.336-32-32-32l-64 0c-17.664 0-32 14.32-32 32l0 161.344C817.328 923.68 831.664 938.032 849.328 938.032z" fill="" p-id="18562"></path></svg>