<?xml version="1.0" standalone="no"?><!DOCTYPE svg PUBLIC "-//W3C//DTD SVG 1.1//EN" "http://www.w3.org/Graphics/SVG/1.1/DTD/svg11.dtd"><svg t="1587648527185" class="icon" viewBox="0 0 1025 1024" version="1.1" xmlns="http://www.w3.org/2000/svg" p-id="17550" xmlns:xlink="http://www.w3.org/1999/xlink" width="32.03125" height="32"><defs><style type="text/css"></style></defs><path d="M792.375811 957.990514 231.595535 957.990514c-56.288634 0-101.926187-45.637552-101.926187-101.92414L129.669348 320.973339c0-56.288634 45.637552-101.92721 101.926187-101.92721l50.957976 0c0-56.285564 77.239787-154.931897 229.433185-154.931897 164.163585 0 229.430115 98.646333 229.430115 154.931897l51.983378 0c56.286587 0 101.92414 45.637552 101.92414 101.92721L895.32433 856.066374C895.323306 912.352962 848.662399 957.990514 792.375811 957.990514zM511.985673 115.076302c-140.407415 0-178.469068 68.786872-178.469068 103.97085l356.938137 0C690.454742 183.863174 644.711784 115.076302 511.985673 115.076302zM844.35919 320.972315c0-28.14534-22.817753-50.964117-50.960023-50.964117l-51.985425 0 0 152.88621-50.96207 0L690.451671 270.008199l-356.93609 0 0 152.88621-50.96514 0L282.550441 270.008199l-50.957976 0c-28.146364 0-50.964117 22.818776-50.964117 50.964117l0 433.172989 663.729818 0L844.358166 320.972315zM844.35919 805.106351 180.630395 805.106351l0 50.957976c0 28.146364 22.817753 50.966163 50.964117 50.966163l561.803632 0c28.144317 0 50.96207-22.8198 50.96207-50.966163L844.360213 805.106351 844.35919 805.106351z" p-id="17551"></path></svg>